<?xml version="1.0" encoding="iso-8859-1"?>
<!-- Generator: Adobe Illustrator 19.0.0, SVG Export Plug-In . SVG Version: 6.00 Build 0)  -->
<svg version="1.1" id="Layer_1" xmlns="http://www.w3.org/2000/svg" xmlns:xlink="http://www.w3.org/1999/xlink" x="0px" y="0px"
	 viewBox="0 0 512 512" style="enable-background:new 0 0 512 512;" xml:space="preserve">
<g>
	<path style="fill:#FFDA79;" d="M131.978,325.969c-4.547,13.298-7.018,27.558-7.018,42.399c0,72.372,58.669,131.039,131.039,131.039
		s131.039-58.669,131.039-131.039c0-14.839-2.468-29.101-7.018-42.399H131.978z"/>
	<circle style="fill:#FFDA79;" cx="297.074" cy="397.761" r="25.407"/>
</g>
<path style="fill:#FFFFFF;" d="M310.745,249.315V60.998H201.257v188.317c-32.376,14.912-57.638,42.622-69.279,76.654h248.045
	C368.383,291.937,343.119,264.227,310.745,249.315z"/>
<path style="fill:#80D0E1;" d="M322.17,12.594H189.831c-13.367,0-24.203,10.836-24.203,24.201l0,0
	c0,13.367,10.836,24.203,24.203,24.203H322.17c13.367,0,24.201-10.836,24.201-24.203l0,0
	C346.372,23.43,335.536,12.594,322.17,12.594z"/>
<g>
	<path style="fill:#58595B;" d="M323.339,241.508V73.564c19.748-0.621,35.627-16.87,35.627-36.767
		C358.966,16.507,342.457,0,322.17,0H189.831c-20.29,0-36.797,16.507-36.797,36.795c0,19.899,15.879,36.147,35.628,36.767v167.946
		c-45.281,24.1-76.296,71.808-76.296,126.858C112.366,447.566,176.8,512,256,512s143.634-64.434,143.634-143.634
		C399.634,313.524,368.816,265.713,323.339,241.508z M178.223,36.795c0-6.401,5.209-11.607,11.609-11.607H322.17
		c6.4,0,11.607,5.207,11.607,11.607s-5.207,11.609-11.607,11.609c-12.97,0-119.639,0-132.339,0
		C183.43,48.404,178.223,43.197,178.223,36.795z M206.525,260.754c4.465-2.057,7.325-6.524,7.325-11.441v-44.819h29.061
		c6.957,0,12.594-5.637,12.594-12.594c0-6.957-5.637-12.594-12.594-12.594h-29.059v-20.237h29.061
		c6.957,0,12.594-5.637,12.594-12.594c0-6.957-5.637-12.594-12.594-12.594h-29.061V73.593h84.299v175.722
		c0,4.917,2.86,9.384,7.325,11.441c23.825,10.972,43.346,29.664,55.437,52.619H151.09C163.18,290.418,182.7,271.726,206.525,260.754
		z M256,486.811c-65.312,0-118.445-53.134-118.445-118.445c0-10.129,1.27-20.119,3.782-29.805h229.327
		c2.512,9.686,3.782,19.676,3.782,29.805C374.445,433.679,321.312,486.811,256,486.811z"/>
	<path style="fill:#58595B;" d="M297.068,359.752c-20.955,0-38.001,17.046-38.001,38.001s17.046,38.003,38.001,38.003
		s38.001-17.048,38.001-38.003C335.069,376.799,318.023,359.752,297.068,359.752z M297.068,410.567
		c-7.065,0-12.813-5.748-12.813-12.814c0-7.065,5.748-12.813,12.813-12.813c7.065,0,12.813,5.748,12.813,12.813
		C309.88,404.819,304.132,410.567,297.068,410.567z"/>
</g>
<g>
</g>
<g>
</g>
<g>
</g>
<g>
</g>
<g>
</g>
<g>
</g>
<g>
</g>
<g>
</g>
<g>
</g>
<g>
</g>
<g>
</g>
<g>
</g>
<g>
</g>
<g>
</g>
<g>
</g>
</svg>
